<svg width="128" height="128" viewBox="0 0 128 128" fill="none" xmlns="http://www.w3.org/2000/svg">
    <!-- 背景圆 -->
    <circle cx="64" cy="64" r="60" fill="#2C2C32"/>

    <!-- 编辑器窗口图标 -->
    <g transform="translate(24, 34)">
        <!-- 左侧窗口 -->
        <rect x="0" y="0" width="32" height="40" rx="4" fill="#007ACC"/>
        <rect x="6" y="8" width="20" height="2" fill="#ffffff" opacity="0.7"/>
        <rect x="6" y="14" width="16" height="2" fill="#ffffff" opacity="0.7"/>
        <rect x="6" y="20" width="18" height="2" fill="#ffffff" opacity="0.7"/>

        <!-- 右侧窗口 -->
        <rect x="48" y="0" width="32" height="40" rx="4" fill="#007ACC"/>
        <rect x="54" y="8" width="20" height="2" fill="#ffffff" opacity="0.7"/>
        <rect x="54" y="14" width="16" height="2" fill="#ffffff" opacity="0.7"/>
        <rect x="54" y="20" width="18" height="2" fill="#ffffff" opacity="0.7"/>

        <!-- 同步箭头 -->
        <path d="M36 16 L44 16 M36 24 L44 24" stroke="#ffffff" stroke-width="2"/>
        <path d="M44 14 L40 16 L44 18" fill="none" stroke="#ffffff" stroke-width="2"/>
        <path d="M36 22 L40 24 L36 26" fill="none" stroke="#ffffff" stroke-width="2"/>
    </g>

    <!-- 外圈装饰 -->
    <circle cx="64" cy="64" r="58" stroke="#007ACC" stroke-width="2" fill="none"/>
</svg>